<?xml version="1.0" encoding="utf-8"?>
<!-- Generator: Adobe Illustrator 22.1.0, SVG Export Plug-In . SVG Version: 6.00 Build 0)  -->
<svg version="1.1" id="Слой_1" xmlns="http://www.w3.org/2000/svg" xmlns:xlink="http://www.w3.org/1999/xlink" x="0px" y="0px"
	 viewBox="0 0 51 31" style="enable-background:new 0 0 51 31;" xml:space="preserve">
<style type="text/css">
	.st0{fill:#06B6D4;}
</style>
<path class="st0" d="M25.5,0c-6.8,0-11.1,3.4-12.8,10.1c2.6-3.4,5.5-4.7,8.9-3.8c1.9,0.5,3.3,1.9,4.9,3.4c2.5,2.5,5.4,5.4,11.7,5.4
	c6.8,0,11.1-3.4,12.8-10.1c-2.6,3.4-5.5,4.6-8.9,3.8c-1.9-0.5-3.3-1.9-4.9-3.4C34.7,2.9,31.8,0,25.5,0z M12.8,15.2
	C6,15.2,1.7,18.6,0,25.4c2.6-3.4,5.5-4.6,8.9-3.8c1.9,0.5,3.3,1.9,4.9,3.4c2.5,2.5,5.4,5.4,11.7,5.4c6.8,0,11.1-3.4,12.8-10.1
	c-2.6,3.4-5.5,4.6-8.9,3.8c-1.9-0.5-3.3-1.9-4.9-3.4C22,18.1,19.1,15.2,12.8,15.2z M0,0"/>
</svg>
